<?xml version="1.0" encoding="UTF-8"?>
<svg id="Layer_1" data-name="Layer 1" xmlns="http://www.w3.org/2000/svg" viewBox="0 0 3000 2000">
  <defs>
    <style>
      .cls-1 {
        fill: #77a4e5;
      }

      .cls-2 {
        fill: #fff;
      }

      .cls-3 {
        fill: #afcdfb;
      }

      .cls-4 {
        fill: #d9935c;
      }

      .cls-5 {
        fill: #599dad;
        opacity: .2;
      }

      .cls-6 {
        fill: #9fc1f4;
      }

      .cls-7 {
        fill: #4a75cb;
      }

      .cls-8 {
        fill: #a9d2d8;
        opacity: .3;
      }

      .cls-9 {
        fill: #bdd8ff;
      }

      .cls-10 {
        fill: #b64c41;
      }

      .cls-11 {
        fill: #ffa412;
      }

      .cls-12 {
        fill: #e27f2b;
      }

      .cls-13 {
        fill: #cb7d45;
      }

      .cls-14 {
        fill: #233862;
      }

      .cls-15 {
        fill: #2b478b;
      }
    </style>
  </defs>
  <rect class="cls-2" width="3000" height="2000"/>
  <path class="cls-8" d="m571.21,1707.24s-357.28-740.11-45.99-1037.72c431.76-412.78,703.72,117.25,940.04,26.71,123.48-47.31,314.35-171.8,544.7-271.11,269.06-116,964.03,157.98,577.82,592.17-369.04,414.87,345.03,431.35-67.61,696.37l-1948.95-6.42Z"/>
  <g>
    <rect class="cls-15" x="957.42" y="641" width="17.5" height="26.5" transform="translate(1932.34 1308.5) rotate(180)"/>
    <rect class="cls-15" x="987.42" y="641" width="17.5" height="26.5" transform="translate(1992.34 1308.5) rotate(180)"/>
    <rect class="cls-15" x="1017.42" y="641" width="17.5" height="26.5" transform="translate(2052.34 1308.5) rotate(180)"/>
    <rect class="cls-15" x="1047.42" y="641" width="17.5" height="26.5" transform="translate(2112.34 1308.5) rotate(180)"/>
    <rect class="cls-15" x="1077.42" y="641" width="17.5" height="26.5" transform="translate(2172.34 1308.5) rotate(180)"/>
    <rect class="cls-15" x="1107.42" y="641" width="17.5" height="26.5" transform="translate(2232.34 1308.5) rotate(180)"/>
    <rect class="cls-15" x="1137.42" y="641" width="17.5" height="26.5" transform="translate(2292.34 1308.5) rotate(180)"/>
    <rect class="cls-15" x="1167.42" y="641" width="17.5" height="26.5" transform="translate(2352.34 1308.5) rotate(180)"/>
    <rect class="cls-15" x="1197.42" y="641" width="17.5" height="26.5" transform="translate(2412.34 1308.5) rotate(180)"/>
    <rect class="cls-15" x="1227.42" y="641" width="17.5" height="26.5" transform="translate(2472.34 1308.5) rotate(180)"/>
  </g>
  <rect class="cls-1" x="829.73" y="692.85" width="542.88" height="1015.67"/>
  <rect class="cls-6" x="854.96" y="720.79" width="492.43" height="958.16"/>
  <rect class="cls-9" x="1113.73" y="748.16" width="233.65" height="901.32"/>
  <rect class="cls-9" x="854.22" y="751.94" width="233.65" height="901.32"/>
  <g>
    <path class="cls-11" d="m1452.29,1631.33l7.06,7.06s-36.77,1.16-99.21-2.87c-21.74-1.4-46.58-3.42-74.06-6.34-40.91-4.35-87.68-10.68-138.76-19.89-18.49-3.32-37.55-7.03-57.1-11.15-6.96-1.46-13.86-2.96-20.66-4.48-36.19-8.08-70.06-16.82-101.29-25.71h-.01c-24.75-7.04-47.85-14.18-69.08-21.16h-.01c-40.18-13.22-73.74-25.88-99.46-36.27-37.94-15.33-58.84-25.73-58.84-25.73l16.78-9.33-5.13-13.11,12.03-3.2.41-16.29,13.12,5.42s22.21,11.11,64.13,27.25c25.92,9.97,59.37,21.89,99.77,34.28,20.17,6.19,42.06,12.51,65.62,18.75,33.07,8.79,69.42,17.46,108.82,25.52,23.15,4.73,47.35,9.27,72.58,13.48,42.04,7.04,86.91,13.21,134.41,18.05,22.92,2.34,46.45,4.37,70.57,6.05h.01c21.67,1.5,43.82,2.7,66.43,3.59l-8.3,10.98,7.53,2.46-4.71,4.71,6.56,8.74-9.2,9.18Z"/>
    <path class="cls-10" d="m1393.96,1591.67l-33.82,43.85c-21.74-1.4-46.58-3.42-74.06-6.34l37.31-43.56c22.92,2.34,46.45,4.37,70.57,6.05Z"/>
    <path class="cls-10" d="m1188.99,1567.57l-41.67,41.72c-18.49-3.32-37.55-7.03-57.1-11.15-6.96-1.46-13.86-2.96-20.66-4.48l46.85-39.57c23.15,4.73,47.35,9.27,72.58,13.48Z"/>
    <path class="cls-10" d="m1007.59,1528.57l-39.32,39.38h-.01c-24.75-7.04-47.85-14.18-69.08-21.16,10.16-9.23,27.03-23.66,42.78-36.98,20.17,6.19,42.06,12.51,65.62,18.75Z"/>
    <path class="cls-10" d="m842.19,1475.54l-42.49,34.99c-37.94-15.33-58.84-25.73-58.84-25.73l16.78-9.33-5.13-13.11,12.03-3.2.41-16.29,13.12,5.42s22.21,11.11,64.13,27.25Z"/>
  </g>
  <g>
    <path class="cls-11" d="m1319.99,642.62l10.07,2.88s-26.19,20.85-74.81,50.59c-16.92,10.35-36.56,21.79-58.75,33.79-33.04,17.87-71.75,37-115.61,55.75-15.87,6.79-32.42,13.53-49.62,20.13-6.13,2.36-12.23,4.65-18.27,6.87-32.15,11.8-63.06,21.75-92.13,30.12h0c-23.04,6.65-44.93,12.31-65.34,17.12h0c-38.64,9.1-72.03,15.16-98.09,19.17-38.45,5.89-60.99,7.3-60.99,7.3l5.87-17.83-12.83-9.63,6.61-9.49-10.97-15.61,13.38-1.92s23.98-1.43,65.91-8.7c25.93-4.5,58.72-11.21,96.94-21.21,19.09-4.99,39.53-10.77,61.14-17.53,30.36-9.46,63.03-20.79,97.53-34.34,20.27-7.96,41.17-16.68,62.6-26.25,35.73-15.93,72.93-34.21,111.15-55.14,18.44-10.1,37.12-20.82,55.98-32.19h0c16.94-10.23,34.04-20.99,51.25-32.3l1.5,14.83,7.23-1.72-.2,6.99,10.86,4.73-.4,13.62Z"/>
    <path class="cls-10" d="m1249.75,636.48l5.5,59.61c-16.92,10.35-36.56,21.79-58.75,33.79l-2.73-61.21c18.44-10.1,37.12-20.82,55.98-32.19Z"/>
    <path class="cls-10" d="m1082.62,723.81l-1.74,61.81c-15.87,6.79-32.42,13.53-49.62,20.13-6.13,2.36-12.23,4.65-18.27,6.87l7.03-62.56c20.27-7.96,41.17-16.68,62.6-26.25Z"/>
    <path class="cls-10" d="m922.49,784.41l-1.63,58.34h0c-23.04,6.65-44.93,12.31-65.34,17.12,1.08-14.18,3.48-36.88,5.84-57.93,19.09-4.99,39.53-10.77,61.14-17.53Z"/>
    <path class="cls-10" d="m764.4,823.14l-7,55.89c-38.45,5.89-60.99,7.3-60.99,7.3l5.87-17.83-12.83-9.63,6.61-9.49-10.97-15.61,13.38-1.92s23.98-1.43,65.91-8.7Z"/>
  </g>
  <rect class="cls-9" x="1996.11" y="701.73" width="565.82" height="1001.73"/>
  <rect class="cls-3" x="2005.31" y="701.73" width="369.83" height="1001.73"/>
  <polygon class="cls-5" points="1725.84 595.14 1322.97 1714.85 1736.92 1714.85 1725.84 595.14"/>
  <polygon class="cls-6" points="1750.12 595.14 1750.12 1708.52 1996.11 1708.52 1996.11 690.84 1750.12 595.14"/>
  <rect class="cls-1" x="1725.84" y="595.14" width="24.28" height="1113.38"/>
  <path class="cls-1" d="m1996.11,692.24v1016.28h565.82v-1016.28h-565.82Zm542.88,992.26h-519.95v-968.23h519.95v968.23Z"/>
  <g>
    <g>
      <path class="cls-1" d="m557.07,1551.36s25.13-29.31,1.55-47.93c0,0-17.22-10.42-31.26-9.58,0,0,19.9,33.37,13.46,36.68-6.44,3.32-19.49-38.78-19.49-38.78,0,0-39.19-3.8-51.8,2.26,0,0,33.5,27.42,26.45,29.05-7.06,1.63-43.24-25.28-43.24-25.28,0,0-36.47,6.21-34.53,28.46,1.95,22.25,14.51,29.12,20.04,28.53,5.52-.59,37.84-12.93,38.54-8.4.7,4.53-18.75,19.32-32.37,20.01,0,0,25.71,28.36,42.81,20.18,17.09-8.18,18.55-21.16,29.2-26.02,10.65-4.87,19.75-4.85,15.35.11-4.4,4.96-23.68,9.79-29.77,20.56-6.09,10.78-11.56,18.04,6.12,15.38,17.68-2.66,46.42-15.6,47.69-30.41l1.26-14.82Z"/>
      <g>
        <path class="cls-1" d="m436.12,1526.85s99.07-3.82,120.94,24.51c0,0,4.84,14.49,19.73,27.69l2.32,6.32s-17.17-18.1-23.31-19.2c0,0,9.61-35.1-119.68-39.33Z"/>
        <path class="cls-1" d="m576.8,1579.05s21.26,15.73,22.74,43.82l-3.86.34s-6.79-29.05-19.07-40.42c-12.27-11.36.18-3.75.18-3.75Z"/>
      </g>
    </g>
    <g>
      <path class="cls-6" d="m644.92,1514.5s-39.97-22.38-21.32-52.76c0,0,14.92-18.65,30.91-23.45,0,0-8.53,45.3,0,46.36,8.53,1.07,5.86-51.16,5.86-51.16,0,0,42.1-20.25,58.62-18.65,0,0-26.11,44.23-17.59,43.17,8.53-1.06,37.84-45.83,37.84-45.83,0,0,43.17-7.99,50.09,17.59,6.93,25.58-4.26,38.37-10.66,39.97-6.4,1.6-47.43,1.07-46.36,6.39,1.07,5.33,28.78,13.86,44.23,9.06,0,0-17.05,42.1-39.44,39.97-22.38-2.13-29.31-15.99-43.17-17.05-13.85-1.07-23.98,2.67-17.05,6.4,6.93,3.73,30.38,1.22,41.57,10.74,11.19,9.51,20.25,15.38-.53,19.64-20.79,4.26-58.09,1.6-65.55-14.39l-7.46-15.99Z"/>
      <g>
        <path class="cls-1" d="m769.62,1437.76s-111.91,36.24-124.7,76.74c0,0,.53,18.12-10.66,38.9v7.99s11.72-27.18,18.12-30.91c0,0-25.05-35.17,117.24-92.73Z"/>
        <path class="cls-1" d="m634.26,1553.4s-17.26,26.21-7.42,58.11l4.44-1.19s-4.31-35.14,4.72-52.81c9.03-17.67-1.74-4.11-1.74-4.11Z"/>
      </g>
    </g>
    <g>
      <path class="cls-6" d="m581.33,1483.63s52.69-29.5,28.1-69.55c0,0-19.67-24.59-40.74-30.91,0,0,11.24,59.71,0,61.12-11.24,1.41-7.73-67.44-7.73-67.44,0,0-55.5-26.69-77.27-24.59,0,0,34.42,58.31,23.18,56.9-11.24-1.41-49.88-60.41-49.88-60.41,0,0-56.9-10.54-66.03,23.18-9.13,33.72,5.62,50.58,14.05,52.69,8.43,2.11,62.52,1.41,61.12,8.43-1.4,7.03-37.93,18.26-58.31,11.94,0,0,22.48,55.5,51.98,52.69,29.5-2.81,38.64-21.08,56.9-22.48,18.26-1.41,31.61,3.51,22.48,8.43-9.13,4.92-40.04,1.61-54.79,14.15-14.75,12.54-26.69,20.27.7,25.89,27.4,5.62,76.57,2.11,86.41-18.97l9.84-21.08Z"/>
      <g>
        <path class="cls-1" d="m416.95,1382.47s147.52,47.77,164.38,101.16c0,0-.7,23.88,14.05,51.28v10.54s-15.46-35.83-23.89-40.74c0,0,33.02-46.37-154.55-122.23Z"/>
        <path class="cls-1" d="m595.38,1534.91s22.75,34.55,9.78,76.6l-5.85-1.57s5.68-46.32-6.22-69.62c-11.9-23.3,2.3-5.41,2.3-5.41Z"/>
      </g>
    </g>
    <path class="cls-1" d="m479.9,1599.5c0,57,46.21,103.21,103.21,103.21,6.96,0,13.76-.69,20.34-2.01,47.25-9.44,82.86-51.16,82.86-101.2h-206.41Z"/>
    <path class="cls-6" d="m520.61,1599.5c0,50.03,35.59,91.75,82.85,101.2,47.25-9.44,82.86-51.16,82.86-101.2h-165.7Z"/>
    <path class="cls-1" d="m478.48,1707.96h209.26c0-3.52-1.43-6.7-3.73-9-2.31-2.3-5.49-3.73-9.01-3.73h-183.79c-7.04,0-12.73,5.7-12.73,12.73Z"/>
    <path class="cls-9" d="m609.16,1695.23h-13.99c37.86-15.29,52.92-52.38,52.92-95.73h25.64c0,43.34-26.71,80.43-64.57,95.73Z"/>
    <path class="cls-6" d="m576.49,1707.96h111.25c0-3.52-1.43-6.7-3.73-9-2.31-2.3-5.49-3.73-9.01-3.73h-89.83c-7.03,0-8.69,5.7-8.69,12.73Z"/>
    <path class="cls-1" d="m479.14,1602.67h208.98c.87,0,1.58-.71,1.58-1.58h0c0-.87-.71-1.58-1.58-1.58h-208.98c-.87,0-1.58.71-1.58,1.58h0c0,.87.71,1.58,1.58,1.58Z"/>
  </g>
  <rect class="cls-1" x="725.87" y="1207.24" width="86.67" height="140.42" rx="10.54" ry="10.54" transform="translate(1538.41 2554.91) rotate(180)"/>
  <polygon class="cls-15" points="769.2 1237.67 787.1 1268.67 751.31 1268.67 769.2 1237.67"/>
  <polygon class="cls-15" points="769.2 1318.67 787.1 1287.67 751.31 1287.67 769.2 1318.67"/>
  <path class="cls-15" d="m1214.37,1038c.46,0,.93-.16,1.31-.49.84-.72.93-1.99.21-2.82l-113.2-131c-.37-.43-.9-.68-1.46-.69-.57-.02-1.11.21-1.5.62l-95.8,100c-.76.8-.74,2.06.06,2.83.8.76,2.06.74,2.83-.06l94.28-98.41,111.76,129.34c.4.46.95.69,1.51.69Z"/>
  <circle class="cls-10" cx="1100.8" cy="909" r="7"/>
  <rect class="cls-10" x="987.17" y="1012.91" width="228" height="83.83" transform="translate(1995.72 2289.74) rotate(-169.69)"/>
  <g>
    <path class="cls-2" d="m1023.84,1050.84c.14-.45.38-.76.71-.95.33-.18.68-.25,1.03-.2l4.28.65c.39.06.71.24.97.55.26.31.34.67.24,1.09-.33,1.43-.91,2.82-1.74,4.17-.84,1.35-1.98,2.51-3.42,3.49-1.45.97-3.2,1.68-5.25,2.12-2.05.45-4.45.46-7.2.04-2.43-.37-4.53-1.06-6.29-2.06-1.76-1-3.19-2.25-4.3-3.74-1.11-1.49-1.89-3.18-2.34-5.09-.45-1.91-.59-3.93-.41-6.07.13-1.35.32-2.84.57-4.46.25-1.62.51-3.1.78-4.43.46-2.09,1.19-3.98,2.19-5.67,1-1.69,2.24-3.08,3.74-4.17,1.5-1.09,3.24-1.85,5.22-2.29,1.98-.44,4.18-.48,6.62-.11,2.75.42,5.04,1.14,6.87,2.18,1.83,1.04,3.29,2.23,4.38,3.59,1.09,1.36,1.84,2.81,2.23,4.37.39,1.56.54,3.05.43,4.47-.03.43-.21.75-.55.97-.34.22-.7.3-1.09.24l-4.28-.65c-.35-.05-.67-.22-.95-.5-.28-.28-.43-.65-.43-1.12,0-.72-.14-1.45-.43-2.17-.29-.73-.72-1.41-1.31-2.04-.59-.63-1.37-1.19-2.34-1.68-.97-.49-2.15-.84-3.52-1.05-1.38-.21-2.61-.18-3.69.09-1.09.27-2.03.7-2.82,1.3-.79.6-1.45,1.37-1.97,2.3-.52.93-.9,1.94-1.13,3.02-.27,1.33-.53,2.81-.78,4.43-.25,1.62-.44,3.11-.57,4.46-.1,1.14-.04,2.22.18,3.25.22,1.03.62,1.94,1.21,2.75.58.81,1.35,1.5,2.31,2.08.96.58,2.12.97,3.5,1.18,1.38.21,2.6.22,3.67.04,1.07-.18,1.99-.48,2.76-.91.77-.42,1.4-.94,1.89-1.55.49-.61.84-1.26,1.05-1.95Z"/>
    <path class="cls-2" d="m1061.09,1061.74c.39.06.7.25.94.58.24.33.33.68.27,1.07l-.57,3.75c-.06.39-.25.7-.58.94-.33.24-.68.33-1.07.27l-23.16-3.51c-.39-.06-.7-.25-.94-.58-.24-.33-.33-.68-.27-1.07l5.18-34.16c.06-.39.25-.7.58-.94.32-.24.68-.33,1.07-.27l4.28.65c.39.06.7.25.94.58.24.33.33.68.27,1.07l-4.4,28.98,17.45,2.65Z"/>
    <path class="cls-2" d="m1068.26,1045.84c.4-1.96,1.07-3.76,1.98-5.41.92-1.65,2.11-3.02,3.57-4.11,1.46-1.09,3.21-1.88,5.22-2.35,2.02-.47,4.33-.51,6.94-.11,2.57.39,4.76,1.1,6.55,2.13s3.22,2.29,4.29,3.79c1.07,1.5,1.81,3.16,2.22,4.99.41,1.83.51,3.76.31,5.78-.07.67-.15,1.42-.26,2.23-.11.81-.22,1.65-.35,2.52-.13.87-.27,1.7-.41,2.51-.14.81-.28,1.55-.42,2.21-.4,1.96-1.07,3.76-1.98,5.41-.92,1.65-2.11,3.02-3.57,4.11-1.46,1.09-3.21,1.87-5.25,2.32-2.03.45-4.34.48-6.91.09-2.61-.4-4.81-1.11-6.6-2.14-1.79-1.03-3.22-2.28-4.3-3.76-1.07-1.48-1.81-3.14-2.19-4.98-.39-1.84-.48-3.76-.29-5.75.07-.67.15-1.42.26-2.23.1-.81.22-1.65.35-2.52.13-.86.27-1.7.41-2.51.14-.81.28-1.55.42-2.21Zm23.92,3.9c.24-2.56-.28-4.65-1.56-6.27-1.29-1.62-3.17-2.62-5.63-2.99-2.47-.38-4.56.02-6.27,1.19-1.71,1.17-2.83,3.01-3.35,5.52-.27,1.33-.54,2.81-.78,4.45-.25,1.64-.44,3.14-.57,4.49-.24,2.56.28,4.64,1.57,6.24,1.29,1.6,3.17,2.59,5.64,2.96,2.47.37,4.56-.01,6.26-1.16,1.71-1.15,2.82-2.98,3.35-5.5.27-1.33.54-2.81.78-4.45.25-1.64.44-3.13.57-4.49Z"/>
    <path class="cls-2" d="m1121.2,1039.21c2.36.36,4.39.99,6.1,1.9,1.7.91,3.08,1.93,4.13,3.06,1.05,1.13,1.8,2.32,2.25,3.56.44,1.24.62,2.38.54,3.41-.03.43-.21.75-.55.97-.34.22-.7.3-1.09.24l-3.7-.56c-.6-.09-1.03-.27-1.3-.55-.27-.28-.49-.62-.68-1.05-.39-.96-1.08-1.85-2.06-2.66-.98-.82-2.52-1.38-4.64-1.71-.92-.14-1.81-.17-2.66-.1-.86.07-1.62.24-2.3.52-.67.28-1.23.65-1.66,1.13-.43.48-.7,1.05-.8,1.72-.12.81-.06,1.5.2,2.06.26.56.75,1.09,1.49,1.58.74.49,1.73.99,2.99,1.51,1.26.51,2.82,1.13,4.7,1.85,2.05.78,3.79,1.59,5.23,2.44,1.44.85,2.58,1.78,3.42,2.79.84,1.01,1.41,2.12,1.71,3.32.3,1.2.35,2.52.13,3.97-.24,1.59-.82,3-1.73,4.26-.91,1.25-2.09,2.26-3.54,3.03-1.45.77-3.17,1.3-5.16,1.57-1.99.27-4.17.23-6.53-.12-1.97-.3-3.82-.82-5.55-1.57-1.73-.75-3.22-1.68-4.47-2.79-1.26-1.11-2.21-2.36-2.87-3.76-.65-1.4-.92-2.88-.79-4.45.03-.43.21-.75.55-.97.34-.22.7-.3,1.09-.24l3.7.56c.6.09,1.04.27,1.33.53.29.26.5.62.65,1.07.18.5.41,1,.69,1.51.28.51.7.99,1.24,1.43.55.44,1.25.85,2.12,1.21.86.37,1.97.65,3.31.85,1.06.16,2.09.24,3.1.23,1.01,0,1.91-.14,2.71-.4.8-.26,1.47-.62,2.01-1.1.54-.48.87-1.12,1-1.93.12-.78-.03-1.45-.45-2.02-.42-.57-1.1-1.1-2.05-1.61-.95-.5-2.14-1.03-3.58-1.57-1.43-.54-3.08-1.21-4.95-1.99-1.7-.69-3.17-1.43-4.4-2.21-1.23-.78-2.22-1.66-2.95-2.64-.74-.98-1.23-2.07-1.48-3.28-.25-1.21-.25-2.61-.01-4.2.24-1.59.81-3,1.72-4.23.91-1.23,2.05-2.23,3.43-3,1.38-.76,2.96-1.29,4.76-1.58,1.79-.29,3.68-.28,5.65.02Z"/>
    <path class="cls-2" d="m1162.73,1077.16c.39.06.7.25.94.58.24.33.33.68.27,1.07l-.57,3.75c-.06.39-.25.7-.58.94-.33.24-.68.33-1.07.27l-23.22-3.52c-.39-.06-.7-.25-.94-.58-.24-.33-.33-.68-.27-1.07l5.18-34.17c.06-.39.25-.7.58-.94.32-.24.68-.33,1.07-.27l22.79,3.46c.39.06.7.25.94.58.24.32.33.68.27,1.07l-.57,3.76c-.06.39-.25.7-.58.94-.33.24-.68.33-1.07.27l-17.08-2.59-1.28,8.41,15.92,2.41c.39.06.7.25.94.58.24.33.33.68.27,1.07l-.57,3.75c-.06.39-.25.7-.58.94-.33.24-.68.33-1.07.27l-15.92-2.41-1.33,8.78,17.51,2.65Z"/>
    <path class="cls-2" d="m1189.82,1050.16c2.61.4,4.82,1.08,6.64,2.06,1.82.98,3.27,2.2,4.37,3.66,1.09,1.46,1.85,3.15,2.26,5.05.41,1.9.52,3.97.33,6.22-.26,2.63-.65,5.24-1.19,7.83-.48,2.2-1.2,4.15-2.16,5.84-.96,1.69-2.17,3.08-3.63,4.16-1.46,1.08-3.19,1.82-5.18,2.22-1.99.4-4.26.41-6.79.03l-13.33-2.02c-.39-.06-.7-.25-.94-.58-.24-.33-.33-.68-.27-1.07l5.18-34.17c.06-.39.25-.7.58-.94.32-.24.68-.33,1.07-.27l13.06,1.98Zm6.46,15.91c.1-1.14.04-2.22-.18-3.25-.22-1.03-.64-1.96-1.25-2.79-.61-.83-1.44-1.53-2.47-2.11-1.03-.57-2.31-.97-3.82-1.2l-7.09-1.07-3.61,23.8,7.35,1.12c1.45.22,2.73.21,3.85-.04,1.12-.24,2.08-.67,2.9-1.26.81-.6,1.48-1.36,2-2.29.52-.93.9-1.96,1.14-3.07.54-2.59.93-5.2,1.19-7.83Z"/>
  </g>
  <path class="cls-7" d="m1788.87,1214.22c0,11.58-4.03,20.97-9,20.97s-9-9.39-9-20.97,4.03-20.97,9-20.97,9,9.39,9,20.97Z"/>
  <path class="cls-1" d="m1805.87,1214.22c0,19.3-6.72,34.95-15,34.95s-15-15.65-15-34.95,6.72-34.95,15-34.95,15,15.65,15,34.95Z"/>
  <g>
    <path class="cls-11" d="m1820.13,1177.62c8.82,2.04,48.67,2.52,76.65-3.77,5.83-1.31,11.16-2.91,15.57-4.86,5.27-2.32,9.25-5.13,11.27-8.51,3.16-5.27,8.95-23.31,15.75-46.96,18.74-65.15,45.11-172.81,45.11-172.81,0,0-52.95,10.81-64.15,20.03-11.21,9.23-21.1,155.56-31.64,159.52-1.55.58-4.23,1.81-7.66,3.5-.17.08-.34.17-.5.25-2.05,1.01-4.35,2.18-6.84,3.46-21.86,11.23-58.04,31.47-61.79,35.97-4.94,5.93-4.62,11.2,8.24,14.17Z"/>
    <path class="cls-11" d="m1921.73,1024.04c0-2.49.25-4.98.7-7.49,6.81-37.46,60.99-75.83,62.05-75.83v.78c0,5.73,9.04,16.3,22.94,17.2,16.49,1.08,36.85-8.33,36.85-17.83.1,0,9.27,1.24,12.37,1.59,13.22,1.5,39.6,8.64,50.9,17.19,10.75,8.12-4.44,59.31-13.84,95.55-3.98,15.34-6.92,27.99-6.44,33.6.24,2.74,2.7,39.95,4.89,73.6,1.82,27.77,3.46,53.11,3.51,54.7.12,3.15-15.56,14.2-41.89,22.54-6.36,2.02-13.35,3.88-20.88,5.42-13.52,2.78-28.8,4.57-45.43,4.51-5.44-.02-10.59-.3-15.45-.78-37.61-3.69-50.5-46.55-50.28-224.76Z"/>
    <path class="cls-4" d="m2044.26,940.44c.32-14.55.08-31.93-1.89-46.6l-58.08,9.49s-.06,17.73.19,37.4c-.03,0-1.58,18.24,20.89,20.91,22.47,2.67,39.49-7.12,38.88-21.2Z"/>
    <path class="cls-14" d="m1995.67,1709.48c7.3-4.49,3.01-37.8,3.01-37.8,0,0-34.2-27.15-38.82-6.25-4.61,20.91-32.28,30.39-48.05,33.01-10.88,1.81-14.9,7.43-15.93,11l99.78.04Z"/>
    <path class="cls-12" d="m2048.87,1136.76c0,55.7,26.99,40.69,43.29,25.65-2.19-33.66-3.74-152.87-3.74-152.87,0,0-39.55,47.46-39.55,127.23Z"/>
    <path class="cls-12" d="m1873.68,1127.48c1.08,7.81,13.42,30.55,23.1,46.38,5.83-1.31,11.16-2.91,15.57-4.86,5.27-2.32,9.25-5.13,11.27-8.51,3.16-5.27,8.95-23.31,15.75-46.96-5.03-29.11-9.82-57.85-9.82-57.85l-1.48-19.28c0,1.48-22.57,86.19-32.8,88.17-6.16,1.2-10.53-.26-14.25-.79-.17.08-.34.17-.5.25-2.05,1.01-4.35,2.18-6.84,3.46Z"/>
    <path class="cls-14" d="m2100.48,1709.48c7.3-4.49,3.01-37.8,3.01-37.8,0,0-34.21-27.15-38.82-6.25-4.61,20.91-32.28,30.39-48.05,33.01-10.88,1.81-14.83,7.43-15.87,11l99.72.04Z"/>
    <path class="cls-14" d="m2049.79,877.08s38.77-61.13-35.68-65.18c0,0-27.92,3.29-34.25-3.03,0,0-21.66,32.92-1.43,68.21,20.23,35.29,71.35,0,71.35,0Z"/>
    <path class="cls-4" d="m1986.01,908.98c5.64,4.44,22.19,8.85,26.97,9.37,0,0,24.54-5.47,29-8.16,6.91-4.19,6.46-12.66,6.82-24.45.42-13.95,1.83-24.9.27-32.94-1.85-9.62-7.95-15.09-25.02-16.58-31.34-2.72-44.4,5.13-44.95,15.64-.14,2.82-.27,5.51-.36,8.06-1.25,32.77,1.33,44.39,7.27,49.06Z"/>
    <path class="cls-14" d="m1978.46,870.66c.3,18.98,5.42,30.22,9.13,31.64,4.27,1.63,9.3,2.99,14.54,3.88,1.77.21,3.46.15,3.44-.85-.06-2.99-4.06-6.69-1.09-9.34,3.12-2.78,19.86-3.72,21.21,2.35.66,2.96-4.74,8.18-1.04,8.3,1.12-.19,2.22-.41,3.28-.68,6.1-1.59,10.88-4.47,12.9-5.69,6.91-4.19,6.45-10.61,7.98-22.3.99-7.56.99-3.46,0,7.76-1.04,11.74.99,19.28-6.82,24.45-4.34,2.87-29.36,14.11-29.36,14.11.36-5.95-20.97-10.88-26.61-15.32-5.24-4.12-7.87-13.64-7.56-38.32Z"/>
    <path class="cls-15" d="m2095.67,1217.1c.12,3.15-15.56,14.2-41.89,22.54-2.12.68-4.32,1.33-6.58,1.95-.03,0-.05.03-.05.06-2.46,28.82-9.11,69.53-15.1,108.82h0c-1.55,10.2-3.06,20.28-4.44,30.04-3.66,25.83-6.4,49.36-6.69,66.3v.18c-.13,7.77,6.43,27.16,6.92,31.64.31,2.74.55,5.64.73,8.67.71,12.13.42,26.47-.55,41.78-4.3,66.8-21.95,152.27-28.25,155.91-12.52,7.24-35.3,0-46.88-1.7-4.79-.71-8.63-4.8-8.38-9.63,5.66-110.86-10.59-265.26-22.73-360.17-.32-2.47-.63-4.89-.94-7.28-1.45-11.19-2.41-21.64-3.02-31.07-.55-8.27-.82-15.77-.94-22.28-.03-2.03-.05-3.96-.06-5.79-.03-5.94,4.7-44.84,4.92-223.05h0c0-4.12,3.38-7.49,7.49-7.49h108.98c10.53,0,19,8.62,18.87,19.15-.17,13.59.32,32.58,3.27,50.69,4.02,24.75,12.64,47.86,30.41,53.42.02,0,.03.02.04.04.08.18.57,1.26,1.35,3.06,0,0,0,.02,0,.03.17,4.47.36,9.03.56,13.67.04.93.08,1.87.13,2.81.02.55.05,1.1.08,1.65.04.94.09,1.89.14,2.84.07,1.56.15,3.13.24,4.73.07,1.25.14,2.49.21,3.75.13,2.41.28,4.86.44,7.32.04.79.09,1.57.15,2.37.21,3.18.42,6.42.67,9.67.07,1,.15,2,.23,3.01.03.48.07.97.11,1.45.1,1.28.2,2.55.31,3.84.11,1.35.23,2.72.35,4.09.44,5-.21,9.46-.08,12.97Z"/>
    <path class="cls-14" d="m2028.01,1529.09c-4.3,66.8-21.95,152.27-28.25,155.91-12.52,7.24-35.3,0-46.88-1.7-4.79-.71-8.63-4.8-8.38-9.63,5.66-110.86-10.59-265.26-22.73-360.17-.32-2.47-.63-4.89-.94-7.28-1.45-11.19-2.41-21.64-3.02-31.07,5.77-37.63,38.37-39.65,67.92,38.2-3.66,25.83,43.26,200.43,42.28,215.74Z"/>
    <path class="cls-15" d="m2096.89,1443.68c.9,7.72,9.93,26.08,11.02,30.46,14.94,60.09,6.69,202.56-.72,208.26-11.46,8.82-35,4.63-46.7,4.47-4.85-.07-9.18-3.62-9.57-8.44-9.19-113.52-47.26-269.44-71.74-361.16-12.33-46.2-14.07-80.17-14.07-80.17,0,0,114.42-70.1,126.79-31.81,10.95,33.89-1.91,179.09,4.99,238.39Z"/>
    <g>
      <path class="cls-11" d="m1980.35,794.81c.79-.89,1.63-1.75,2.51-2.58,3.73-3.55,8.23-6.61,13.63-8.86,19.95-8.32,36.5-.64,46.83,7.23,1.02.77,1.98,1.54,2.87,2.31,5.62,4.78,8.76,9.04,8.76,9.04,0,0,9.69,13.22,9.37,41.08l-99.8,1.07s-1.46-30.09,15.83-49.28Z"/>
      <g>
        <path class="cls-12" d="m2036.32,843.32l-5.48.06c-.11-1.59.16-37.81,13.67-51.87,1.02.77.81.63,1.7,1.4-12.83,12.38-9.91,50.03-9.88,50.41Z"/>
        <path class="cls-12" d="m1992.95,843.79c-1.14-22.18-9.63-45.48-11.92-49.62.79-.91.96-1.08,1.84-1.94,1.59,2.74,14.61,26.87,15.98,51.5l65.48-.7s-33.18,7.44-53.2,7.69c-20.02.25-46.6-6.62-46.6-6.62l28.43-.3Z"/>
      </g>
    </g>
    <path class="cls-15" d="m2060.56,942.99s-33.72,39.28-35.7,73.56l17.18.91s4.33-38.18,29.71-72.12c0,0-3.97-.96-5.29-1.22-1.77-.35-5.89-1.12-5.89-1.12Z"/>
    <path class="cls-15" d="m1976.49,942.45c-24.16,36.56-26.75,74.84-26.75,74.84l-17.34-.3c1.42-26.94,18.35-56.58,27.7-70.62,0,0,12-3.03,16.39-3.92Z"/>
    <g>
      <path class="cls-11" d="m2014.15,1319.45h13.92c6.47-2.94,41.34-18.04,74.85-18.22,24.18-.13,51.74,17.93,53.39,18.13,4.2.49-14.01.66-14.01.66,0,0-27.29-12.08-39.55-12.36-11.69-.27-37.63,8.22-48,11.8h78.04c6.53,0,11.87,5.34,11.87,11.87v88.99c0,6.53-5.34,11.87-11.87,11.87h-118.65c-6.53,0-11.87-5.34-11.87-11.87v-88.99c0-6.53,5.34-11.87,11.87-11.87Z"/>
      <path class="cls-12" d="m2052.71,1319.45h118.65c6.55,0,11.87,5.32,11.87,11.87v88.99c0,6.55-5.32,11.87-11.87,11.87h-118.65c-6.55,0-11.87-5.32-11.87-11.87v-88.99c0-6.55,5.32-11.87,11.87-11.87Z"/>
    </g>
    <path class="cls-11" d="m2087.55,1153.87c-.85,40.22,4.16,120.32,4.16,120.32h23.73c11.2-56.36,15.16-92.62,15.16-112.39,0-3.9-.02-7.53-.05-10.88-.15-16.89-.6-26.7-.6-26.7,4.45-102.33-15.99-157.05-22.41-164.58-6.43-7.53-35.79-14.31-35.79-14.31,0,0-9.7,28.27-13.66,51.01-3.96,22.74,31.11,118.3,29.66,150.96-.09,2.04-.16,4.23-.21,6.57Z"/>
    <path class="cls-4" d="m2091.72,1274.2s-5.01-80.1-4.16-120.32c18.97-6.12,34.28-4.78,43-2.95.03,3.35.05,6.98.05,10.88,0,19.77-3.96,56.03-15.16,112.39,4.94,20.76,4.61,43.18-3.96,47.13-8.57,3.96-36.91-10.88-36.59-17.47.33-6.59,16.81-29.66,16.81-29.66Z"/>
    <path class="cls-4" d="m1767.03,1181.58c2.31-8.48,4.03-13.18,9.87-17.3,8.49-5.99,18.56-4.37,26.07-3.05,5.74,1.01,11.75-.92,14.27-1.88,13.3-8.86,46.67-27.13,63.29-35.32,11.34,6.58,25.27,19.59,31.83,44.98-25.58,11.28-81.56,11.08-92.22,8.62,0,0-9.87,7.17-17.38,7.83-2.84.25-6.43-.58-9.78-1.7-5.27-1.77-10.94,0-14.73,4.68-3.65,4.51-8.41,6.99-10.39,6.99-3.06,0-2.29-8.5-.83-13.84Z"/>
  </g>
  <path class="cls-11" d="m1462.55,1104.25c9.41,28.8,60.68,78.57,67.76,83.54,0,0,11.93-19.88,9.54-31.02-1.95-9.09-21.91-41.49-28.74-57.41-.36-.83-.68-1.61-.96-2.35-.94-2.44-1.43-4.33-1.32-5.46.34-3.46,11.21-11.87,23.85-21.85,16.42-12.98,35.83-28.59,38.98-39.38,5.57-19.09,24.85-94.66,24.85-94.66,0,0-47.92,10.36-61.44,22.29-13.52,11.93-71.57,111.34-73.96,136.79-.26,2.78.26,5.99,1.42,9.51Z"/>
  <path class="cls-4" d="m1462.55,1104.25c9.41,28.8,60.68,78.57,67.76,83.54,0,0,11.93-19.88,9.54-31.02-2.05-9.56-24.03-44.92-29.7-59.76-8.52-1.48-28.52-3.29-47.61,7.24Z"/>
  <path class="cls-4" d="m1596.5,929.02l.03,5.87s-1.6,18.35,21,21.04c22.6,2.69,39.62-5.51,39.01-19.67-2.04-10.97-4.17-20.14-4.32-29.22-.06-3.37.17-6.95.8-10.99l-43.79-.88-12.9,2.11.17,31.75Z"/>
  <path class="cls-13" d="m1596.33,897.27l.17,31.75c4.65,2.16,9.9,3.48,15.79,3.48,20.13,0,33.14-14.76,39.94-25.47-.06-3.37.17-6.95.8-10.99l-43.79-.88-12.9,2.11Z"/>
  <path class="cls-14" d="m1635.1,1707.3s2.13-16.56,7.05-26.41c4.92-9.85,36.25-3.58,36.25-3.58,0,0,6.27,5.37,7.61,30.43l-50.91-.45Z"/>
  <path class="cls-14" d="m1528.37,1707.24c7.36-4.49,3.17-38.01,3.17-38.01,0,0-34.3-27.44-39.02-6.43-4.72,21.01-32.59,30.44-48.45,33.02-10.95,1.78-14.34,7.84-15.39,11.43h99.69Z"/>
  <path class="cls-15" d="m1599.42,1459.73c-1.4,7.69-2.28,14-2.52,18.53-3.19,62.2-52.36,204.41-61.15,207.72-13.61,5.13-35.04-5.78-46.25-9.35-4.65-1.48-7.78-6.17-6.75-10.92,24.35-111.94,33.3-273.12,36.55-368.54,1.64-48.07,9.9-81.27,9.9-81.27,0,0,119.92-32,120.63,8.48.63,35.82-39.72,176.27-50.42,235.36Z"/>
  <path class="cls-14" d="m1599.42,1459.73l-80.11-162.57c1.64-48.07,9.9-81.27,9.9-81.27,0,0,119.92-32,120.63,8.48.63,35.82-39.72,176.27-50.42,235.36Z"/>
  <path class="cls-15" d="m1572.74,1224.51l63.39,459.45s27.84,6.71,49.49,1.34c0,0,18.56-244.36,17.01-303.43-1.55-59.08,13.32-158.08-3.39-168.99s-126.5,11.63-126.5,11.63Z"/>
  <path class="cls-11" d="m1525.75,1225.36s32.39,18.89,79.31,18.35c18.29-.21,34.21-1.57,47.71-3.59,37.63-5.58,56.62-16.09,56.47-20-.13-3.53-.37-15.26-.82-20.3-5.98-68.97-2.89-122.61-10.94-162.9-.09-.49-.19-.97-.29-1.45-10.65-51.23-27.34-80.66-35.63-92.74-3.03-4.41-4.93-6.49-5.03-6.49,0,9.56-20.36,17.81-36.96,16.73-13.98-.91-23.05-11.55-23.05-17.31l-.02-.02c-1.15,0-63.07,43.04-63.12,83.03-.21,179.24-11.08,206.73-7.64,206.67Z"/>
  <path class="cls-12" d="m1652.69,1239.54c.03.2.06.4.09.59,37.63-5.58,56.62-16.09,56.47-20-.13-3.53-.37-15.26-.82-20.3-5.98-68.97-2.89-122.61-10.94-162.9-19.75,26.4-60.36,95.55-44.81,202.62Z"/>
  <path class="cls-4" d="m1646.68,1180.37c52.19-8.3,86.69-30.17,100.86-40.75,4.84-3.61,7.3-5.91,7.3-5.91,26.75-56.23-21.64-154.81-30.48-171.52-9.54-18.02-67.81-25.94-67.81-25.94,0,0,9.3,27.37,12.94,63.06,3.63,35.68,42.41,105.24,40.82,111.08-.4,1.47-5.08,4.56-11.91,8.45-20.26,11.53-59.4,30.12-61.78,34.49-3.18,5.83,10.07,27.04,10.07,27.04Z"/>
  <path class="cls-11" d="m1669.48,999.3c3.63,35.68,42.41,105.24,40.82,111.08-.4,1.47-5.08,4.56-11.91,8.45.43.03.87.04,1.31.02,30.51-1.34,44.31,15.53,47.84,20.76,4.84-3.61,7.3-5.91,7.3-5.91,26.75-56.23-21.64-154.81-30.48-171.52-9.54-18.02-67.81-25.94-67.81-25.94,0,0,9.3,27.37,12.94,63.06Z"/>
  <path class="cls-4" d="m1593.78,912.7s56.09,11.33,62.61-23.71c6.52-35.04,18.15-57.17-17.39-65.89-35.54-8.72-45,3.36-50.02,14.52-5.02,11.17-9.62,71.23,4.8,75.08Z"/>
  <path class="cls-14" d="m1655.27,899.09s10.84-23.14,19.89-33.42c9.04-10.28,4.11-61.66-34.94-60.02-39.05,1.64-53.03,29.6-53.44,34.94-.41,5.34,31.24,1.23,39.87,8.22,8.63,6.99.41,18.5,10.28,22.61,9.87,4.11,17.68,4.11,16.03,13.15-1.64,9.04,2.31,14.51,2.31,14.51Z"/>
  <path class="cls-11" d="m1643.22,781.8c11.17,2.81,19.56,7.29,25.82,12.69.62.53,1.22,1.08,1.8,1.64h0c23.16,22.09,13.92,57.24,13.92,57.24,0,0-3.08,8.88-5.2,12.33-2.12,3.45-32.87-.53-34.46-7.16s-7.69-13.52-7.69-13.52c0,0-32.41-2.23-34.59-2.39-7.32-.53-28.22-7.8-28.22-7.8.24-2.05,12-67.26,68.62-53.04Z"/>
  <path class="cls-12" d="m1555.39,827.95c3.89-.95,10.52-2.01,21.45-2.41,0,0,9.17,7.6,27.41,13.39,8.57-10.8,32.99-36.83,64.78-44.44.09-.02.18-.05.28-.07.68.85,1.06,1.14,1.53,1.71h0c.14.17.29.37.46.62-25.88,4.51-50.48,33.58-58.93,44.46,7.25,1.78,15.58,3.19,25.03,3.81,0,0-56.65,1.06-82.54-12.58-1.97-1.04-1.64-3.97.53-4.5Z"/>
  <path class="cls-12" d="m1497.71,1085.19c1.05,5.95,4.25,12.21,13.41,14.16-.36-.83-.68-1.61-.96-2.35-.94-2.44-1.43-4.33-1.32-5.46.34-3.46,11.21-11.87,23.85-21.85,1.04-5.66,3.59-22.47,0-35.8-4.37-16.3-36.19,44.54-34.99,51.29Z"/>
  <path class="cls-12" d="m1704.48,1114.82s38.97-3.18,51.69,19.48c0,0-1.09,7.64-8.63,5.31,0,0-32.96-22.53-49.15-20.78,0,0,2.5-3.95,6.08-4.02Z"/>
  <path class="cls-12" d="m1511.11,1099.36s-20.22.85-45.67,11.93c0,0-5.65-5.55-3.4-8.73,2.25-3.18,38.08-14.62,49.06-3.2Z"/>
  <g>
    <polygon class="cls-15" points="1544.26 1096.32 1539.5 1100.87 1548 1108.65 1548.73 1107.96 1584.82 1145.62 1586.99 1143.55 1550.89 1105.89 1551.61 1105.19 1544.26 1096.32"/>
    <path class="cls-14" d="m1621.37,1181.52h0c-1.99,1.91-5.16,1.84-7.07-.15l-29.29-30.56c-1.91-1.99-1.84-5.16.15-7.07h0c1.99-1.91,5.16-1.84,7.07.15l29.29,30.56c1.91,1.99,1.84,5.16-.15,7.07Z"/>
  </g>
  <path class="cls-4" d="m1636.61,1153.32s-29.16-11.66-36.32-6.89c-7.16,4.77-19.09,11.93-19.09,16.7s15.11,17.5,27.83,21.47c12.72,3.98,37.64-4.24,37.64-4.24l-10.07-27.04Z"/>
  <path class="cls-15" d="m319.26,1707.22h2361.49c1.91,0,3.46,1.55,3.46,3.46v3.54c0,1.91-1.55,3.46-3.46,3.46H319.26c-1.91,0-3.46-1.55-3.46-3.46v-3.55c0-1.91,1.55-3.46,3.46-3.46Z"/>
</svg>