<?xml version="1.0" standalone="no"?>
<!DOCTYPE svg PUBLIC "-//W3C//DTD SVG 20010904//EN"
 "http://www.w3.org/TR/2001/REC-SVG-20010904/DTD/svg10.dtd">
<svg version="1.0" xmlns="http://www.w3.org/2000/svg"
 width="3000.000000pt" height="2000.000000pt" viewBox="0 0 3000.000000 2000.000000"
 preserveAspectRatio="xMidYMid meet">

<g transform="translate(0.000000,2000.000000) scale(0.100000,-0.100000)"
fill="#000000" stroke="none">
<path d="M12460 13608 c-29 -18 -48 -21 -107 -19 l-72 2 -3 -46 c-3 -47 -4
-47 -65 -80 l-63 -33 0 79 0 79 -90 0 -90 0 0 -130 c0 -108 -3 -130 -16 -138
-14 -8 -15 -37 -3 -310 8 -187 16 -302 22 -302 18 0 537 294 576 326 4 3 -35
446 -48 544 l-6 50 -35 -22z"/>
<path d="M9570 13460 l0 -130 90 0 90 0 0 130 0 130 -90 0 -90 0 0 -130z"/>
<path d="M9870 13460 l0 -130 90 0 90 0 0 130 0 130 -90 0 -90 0 0 -130z"/>
<path d="M10170 13460 l0 -130 90 0 90 0 0 130 0 130 -90 0 -90 0 0 -130z"/>
<path d="M10470 13460 l0 -130 90 0 90 0 0 130 0 130 -90 0 -90 0 0 -130z"/>
<path d="M10770 13460 l0 -130 90 0 90 0 0 130 0 130 -90 0 -90 0 0 -130z"/>
<path d="M11070 13460 l0 -130 90 0 90 0 0 130 0 130 -90 0 -90 0 0 -130z"/>
<path d="M11370 13460 l0 -130 90 0 90 0 0 130 0 130 -90 0 -90 0 0 -130z"/>
<path d="M11670 13460 l0 -130 90 0 90 0 0 130 0 130 -90 0 -90 0 0 -130z"/>
<path d="M10715 12714 c-55 -25 -176 -77 -270 -115 -267 -109 -243 -96 -250
-143 -16 -119 -64 -571 -60 -574 6 -6 185 61 451 169 l222 90 6 227 c3 125 8
264 10 310 2 45 1 82 -3 81 -3 0 -51 -20 -106 -45z"/>
<path d="M9175 12141 c-17 -7 -342 -101 -511 -147 l-51 -14 -22 -203 c-12
-111 -25 -241 -28 -289 l-6 -87 249 63 c137 35 283 74 325 86 l76 22 6 172 c4
94 7 224 7 289 0 123 -1 125 -45 108z"/>
<path d="M7520 11749 c-114 -20 -345 -50 -533 -69 -64 -7 -120 -16 -123 -21
-3 -5 15 -37 39 -71 24 -35 47 -68 50 -74 4 -6 -7 -29 -23 -50 -16 -21 -29
-43 -30 -49 0 -5 25 -28 56 -50 31 -22 58 -43 61 -48 2 -4 -8 -44 -22 -88 -15
-44 -24 -83 -21 -86 9 -10 594 58 601 69 2 5 66 532 65 546 0 6 -3 11 -7 11
-5 -1 -55 -10 -113 -20z"/>
<path d="M15900 11571 c24 -9 147 -15 139 -7 -2 2 -40 6 -84 9 -50 4 -71 3
-55 -2z"/>
<path d="M16121 11550 c138 -16 178 -47 186 -143 8 -100 13 -105 146 -157 31
-12 61 -28 64 -34 4 -6 8 -45 8 -86 1 -42 7 -85 14 -99 13 -23 15 -20 65 75
28 55 71 127 94 162 l43 62 -31 0 c-49 0 -181 30 -221 50 -24 13 -39 29 -43
47 -4 15 -21 49 -39 75 -31 47 -34 48 -82 48 -27 0 -102 2 -165 5 -105 4 -109
3 -39 -5z"/>
<path d="M20517 11548 c-39 -8 -47 -13 -41 -27 4 -9 12 -47 18 -84 12 -84 -15
-331 -43 -386 -20 -40 -111 -95 -175 -107 -38 -7 -39 -6 -32 17 19 60 18 67
-6 82 -41 27 -155 26 -188 -1 -21 -17 -22 -21 -10 -56 6 -20 9 -40 6 -43 -11
-11 -154 28 -180 48 -26 20 -49 79 -66 169 -12 58 -14 304 -4 344 5 21 1 24
-45 33 l-51 10 0 -46 c0 -52 32 -176 57 -225 9 -17 22 -82 29 -146 14 -121 33
-187 63 -214 10 -9 69 -39 132 -66 63 -28 122 -59 131 -71 22 -26 26 -24 193
58 72 35 138 75 148 88 23 32 37 109 37 205 0 62 5 86 25 126 41 79 73 177 81
243 7 69 10 67 -79 49z"/>
<path d="M10960 10960 c-11 -11 -20 -28 -20 -37 0 -10 -29 -47 -63 -83 -35
-36 -173 -180 -307 -320 -425 -446 -462 -482 -485 -476 -11 3 -43 9 -70 12
l-50 6 -17 -93 c-9 -52 -42 -235 -74 -407 -31 -172 -55 -314 -53 -316 2 -2
195 -38 429 -81 234 -42 531 -96 660 -120 665 -123 1141 -207 1145 -203 3 2
34 168 70 369 36 200 69 383 74 406 8 41 8 42 -25 50 -27 7 -76 59 -271 284
-131 151 -306 354 -389 450 -82 96 -212 246 -288 334 -76 88 -144 174 -151
192 -22 53 -78 70 -115 33z m72 -112 c27 10 32 8 58 -21 33 -38 374 -432 615
-712 95 -110 216 -249 268 -310 53 -60 92 -111 88 -113 -11 -4 -96 11 -956
167 -890 162 -926 169 -933 175 -2 3 103 117 234 253 132 137 308 321 393 410
145 153 155 161 178 150 18 -8 32 -8 55 1z m-782 -1100 c50 -26 77 -59 86
-105 5 -25 3 -34 -10 -39 -30 -11 -67 5 -77 35 -12 35 -45 54 -89 49 -49 -5
-71 -41 -77 -125 -5 -67 -4 -71 22 -91 39 -31 80 -28 116 8 24 24 36 28 59 23
64 -12 16 -100 -67 -122 -76 -21 -169 15 -198 75 -25 53 -16 177 17 235 43 77
132 100 218 57z m230 -62 c-1 -17 -9 -85 -19 -151 -11 -66 -18 -121 -18 -122
1 0 43 -7 92 -15 l90 -13 -2 -29 c-1 -16 -6 -33 -10 -37 -10 -9 -241 25 -253
37 -9 10 38 343 51 360 5 6 22 9 39 6 26 -4 30 -8 30 -36z m406 -27 c53 -14
100 -62 110 -113 8 -46 -13 -165 -36 -204 -30 -49 -66 -67 -131 -66 -64 1
-110 22 -143 67 -37 50 -22 211 26 272 39 50 94 64 174 44z m396 -72 c39 -21
74 -78 64 -104 -9 -23 -61 -9 -89 22 -29 33 -87 44 -111 20 -9 -10 -15 -22
-13 -29 2 -6 40 -29 86 -51 93 -45 111 -64 111 -115 0 -95 -114 -139 -230 -89
-62 27 -86 62 -81 117 2 25 50 12 85 -23 30 -29 42 -35 79 -35 46 0 75 19 62
40 -4 6 -40 26 -79 44 -90 41 -116 67 -116 118 0 98 125 144 232 85z m286 -33
c59 -10 110 -21 113 -26 7 -11 0 -56 -10 -63 -4 -2 -45 2 -92 10 -46 7 -85 12
-85 12 -1 -1 -4 -18 -8 -38 l-7 -37 86 -12 c83 -12 85 -13 85 -39 0 -42 -14
-49 -78 -39 -31 4 -67 10 -79 13 -19 4 -23 0 -29 -30 -3 -20 -4 -38 -2 -41 4
-3 161 -34 176 -34 8 0 0 -60 -9 -65 -17 -11 -250 27 -256 41 -5 13 43 340 53
355 7 12 18 12 142 -7z m344 -55 c102 -22 142 -94 120 -217 -23 -137 -78 -174
-229 -153 -48 7 -93 16 -98 21 -10 8 2 108 44 369 1 5 101 -7 163 -20z"/>
<path d="M10780 9570 c-11 -11 -20 -26 -21 -32 0 -7 -4 -35 -8 -63 -13 -80 16
-125 80 -125 51 0 72 34 85 137 6 47 4 54 -19 77 -33 33 -88 35 -117 6z"/>
<path d="M11816 9417 c-2 -12 -10 -62 -17 -110 -14 -103 -12 -107 62 -107 58
0 75 18 90 93 19 94 -2 126 -93 140 -31 5 -37 3 -42 -16z"/>
<path d="M19656 10552 c-57 -16 -61 -20 -99 -82 -122 -200 -201 -402 -232
-591 -5 -32 -10 -38 -39 -43 -18 -4 -42 -16 -52 -27 -18 -20 -19 -54 -25 -698
-7 -658 -17 -1180 -24 -1251 -10 -87 -13 -606 -4 -700 5 -58 27 -249 49 -425
110 -886 175 -1615 210 -2345 5 -107 9 -414 8 -683 l-1 -487 22 -24 22 -23
-66 -42 c-62 -40 -250 -111 -292 -111 -39 0 -111 -32 -138 -60 l-29 -30 -1052
0 -1051 0 -7 63 c-4 34 -12 79 -17 100 -8 31 -7 41 4 50 12 10 23 116 51 527
100 1433 136 2118 136 2626 0 138 7 370 17 515 17 275 24 864 10 912 l-7 27
-48 -24 c-163 -81 -428 -135 -784 -157 -141 -9 -218 -9 -318 0 -207 17 -446
78 -583 147 -55 29 -50 36 -72 -105 -30 -195 -45 -375 -55 -656 -51 -1422
-180 -2750 -340 -3502 -24 -113 -25 -161 -4 -185 21 -22 12 -34 -69 -94 -67
-50 -186 -98 -304 -124 -97 -21 -140 -44 -168 -88 l-20 -31 -4400 -1 c-4888 0
-6706 -7 -6718 -24 -4 -6 -6 -24 -5 -41 l3 -30 11835 0 11835 0 3 36 c2 28 -1
38 -15 44 -10 4 -1317 10 -2904 13 l-2886 5 8 36 c5 20 9 69 9 109 0 57 4 79
20 101 88 118 122 1257 55 1818 -22 182 -40 255 -96 392 -35 86 -54 149 -62
207 l-11 84 -423 0 c-278 0 -430 4 -445 11 -13 6 -32 22 -43 37 -19 26 -20 45
-23 504 -2 416 -1 482 13 508 26 51 58 64 169 71 87 5 116 12 208 47 59 23
157 55 218 71 l111 28 30 63 c16 34 55 101 86 149 l56 86 -12 235 c-24 479
-33 799 -26 953 l6 157 -73 73 c-75 73 -110 131 -149 245 -45 130 -76 352 -85
596 -3 94 -10 185 -15 203 -11 36 -77 100 -112 108 -22 6 -24 9 -16 49 39 212
131 438 247 614 40 60 38 65 -32 77 -38 6 -43 4 -69 -27 -52 -61 -168 -240
-213 -330 -52 -104 -100 -241 -110 -315 l-7 -53 -374 0 -375 0 7 43 c33 209
117 447 220 625 35 61 36 62 13 61 -13 0 -50 -8 -82 -17z m-3582 -5307 c21
-154 46 -341 57 -415 10 -74 27 -200 38 -280 130 -946 193 -1385 199 -1388 29
-10 31 -18 17 -67 -7 -28 -19 -76 -25 -107 l-11 -58 -529 0 -529 0 14 26 c7
15 17 60 20 100 6 62 11 76 31 89 47 31 151 277 278 658 180 542 298 1029 331
1363 15 158 54 379 65 367 4 -4 24 -134 44 -288z m4260 -786 c61 -335 111
-662 141 -924 14 -121 29 -254 34 -295 10 -71 9 -76 -12 -93 -47 -38 -173 -90
-280 -117 -124 -30 -171 -50 -190 -80 -6 -11 -19 -20 -29 -20 -14 0 -15 5 -7
32 5 18 9 67 9 108 0 42 4 80 9 85 29 29 105 332 155 610 47 266 97 640 112
853 4 51 8 91 10 89 2 -2 24 -113 48 -248z"/>
<path d="M15420 9015 l-24 -25 39 -40 c22 -22 44 -40 51 -40 6 0 37 -28 69
-62 32 -35 108 -113 168 -175 83 -86 109 -120 112 -144 4 -31 30 -69 47 -69 5
0 27 12 49 27 l40 26 -33 34 c-20 21 -42 33 -58 33 -18 0 -36 11 -55 33 -16
17 -86 91 -156 163 -70 72 -138 149 -153 170 -14 21 -36 51 -49 67 l-23 27
-24 -25z"/>
<path d="M17754 8035 c-58 -89 -57 -289 3 -353 19 -21 23 -23 17 -7 -13 36
-17 270 -5 325 13 62 9 72 -15 35z"/>
<path d="M7598 7467 l-88 -152 177 -3 c97 -1 178 -1 180 2 6 5 -167 306 -176
306 -3 0 -45 -69 -93 -153z"/>
<path d="M7517 7124 c-5 -5 153 -287 171 -306 6 -6 182 288 182 305 0 8 -344
10 -353 1z"/>
<path d="M20675 6845 l-100 -33 185 -1 185 -1 -65 35 c-35 19 -73 35 -85 34
-11 0 -65 -15 -120 -34z"/>
<path d="M7895 5416 c-17 -41 -59 -92 -89 -108 -11 -7 -68 -14 -126 -17 -99
-6 -104 -7 -110 -29 -3 -15 -25 -35 -64 -57 l-58 -33 38 -13 c25 -9 85 -14
160 -14 l121 0 -19 -45 c-11 -25 -23 -49 -29 -54 -21 -22 -2 -35 132 -91 122
-51 143 -57 161 -46 17 11 267 215 376 308 l34 28 -89 34 c-48 19 -161 65
-250 103 -90 37 -165 68 -168 68 -3 0 -12 -15 -20 -34z"/>
<path d="M9245 4754 c-229 -197 -249 -216 -230 -226 19 -11 214 -73 465 -148
l204 -61 193 193 c106 106 193 196 193 200 0 3 -15 9 -32 13 -18 4 -165 45
-326 91 -161 46 -294 84 -295 84 -1 0 -79 -66 -172 -146z"/>
<path d="M11090 4397 c-41 -34 -147 -123 -235 -197 l-159 -135 74 -17 c85 -20
466 -98 609 -123 l93 -18 204 204 c112 112 204 206 204 209 0 4 -35 12 -77 19
-100 16 -603 110 -623 116 -9 3 -48 -22 -90 -58z"/>
<path d="M13138 4033 c-234 -267 -272 -317 -252 -324 20 -8 416 -45 601 -55
l112 -7 28 33 c15 19 90 115 166 214 130 170 137 181 115 187 -13 4 -120 14
-238 24 -118 9 -253 21 -300 26 -142 15 -127 21 -232 -98z"/>
</g>
</svg>
